<svg width="163" height="167" viewBox="0 0 163 167" fill="none" xmlns="http://www.w3.org/2000/svg">
<path d="M16.125 115.562C16.125 111.11 12.5153 107.5 8.0625 107.5C3.60974 107.5 0 111.11 0 115.562H16.125ZM162.862 115.562C162.862 111.11 159.253 107.5 154.8 107.5C150.347 107.5 146.737 111.11 146.737 115.562H162.862ZM75.0737 121.354C72.3357 124.864 72.9613 129.931 76.4723 132.67C79.9832 135.408 85.0497 134.782 87.7888 131.271L75.0737 121.354ZM129.714 77.5215C132.452 74.0105 131.826 68.944 128.315 66.2049C124.804 63.4669 119.738 64.0926 116.999 67.6035L129.714 77.5215ZM75.0737 131.271C77.8128 134.782 82.8793 135.408 86.3902 132.67C89.9012 129.931 90.5268 124.864 87.7888 121.354L75.0737 131.271ZM45.8636 67.6035C43.1249 64.0926 38.0585 63.4669 34.5476 66.2049C31.0365 68.944 30.4104 74.0105 33.1489 77.5215L45.8636 67.6035ZM73.3687 126.312C73.3687 130.765 76.9786 134.375 81.4312 134.375C85.8839 134.375 89.4937 130.765 89.4937 126.312H73.3687ZM89.4937 8.0625C89.4937 3.60974 85.8839 0 81.4312 0C76.9786 0 73.3687 3.60974 73.3687 8.0625H89.4937ZM0 115.562V126.312H16.125V115.562H0ZM0 126.312C0 148.383 17.4964 166.625 39.5062 166.625V150.5C26.7844 150.5 16.125 139.865 16.125 126.312H0ZM39.5062 166.625H123.356V150.5H39.5062V166.625ZM123.356 166.625C145.366 166.625 162.862 148.383 162.862 126.312H146.737C146.737 139.865 136.078 150.5 123.356 150.5V166.625ZM162.862 126.312V115.562H146.737V126.312H162.862ZM87.7888 131.271L129.714 77.5215L116.999 67.6035L75.0737 121.354L87.7888 131.271ZM87.7888 121.354L45.8636 67.6035L33.1489 77.5215L75.0737 131.271L87.7888 121.354ZM89.4937 126.312V8.0625H73.3687V126.312H89.4937Z" fill="black"/>
</svg>
