<?xml version="1.0" encoding="utf-8"?><!-- Uploaded to: SVG Repo, www.svgrepo.com, Generator: SVG Repo Mixer Tools -->
<svg width="800px" height="800px" viewBox="0 0 24 24" fill="none" xmlns="http://www.w3.org/2000/svg">
<path fill-rule="evenodd" clip-rule="evenodd" d="M5.44152 5.00024C5.00819 5.00024 4.63559 5.27423 4.50847 5.67256C4.12006 6.88964 3.54128 8.7533 3.03552 10.582C3.77685 10.2098 4.61396 10.0002 5.5 10.0002C8.08018 10.0002 10.2454 11.7769 10.839 14.1737C11.1739 14.0666 11.5598 14.0002 12 14.0002C12.4402 14.0002 12.8261 14.0666 13.161 14.1737C13.7546 11.7769 15.9198 10.0002 18.5 10.0002C19.386 10.0002 20.2231 10.2098 20.9645 10.582C20.4587 8.7533 19.8799 6.88964 19.4915 5.67256C19.3644 5.27423 18.9918 5.00024 18.5585 5.00024H17C16.4477 5.00024 16 4.55253 16 4.00024C16 3.44796 16.4477 3.00024 17 3.00024H18.5585C19.8469 3.00024 21.0005 3.82262 21.3969 5.06451C21.8162 6.3784 22.4602 8.45388 23.0003 10.4437C23.2702 11.438 23.517 12.4208 23.6969 13.2818C23.8041 13.7942 23.8932 14.2893 23.9465 14.7302C23.9818 14.9818 24 15.2389 24 15.5002C24 18.5378 21.5376 21.0002 18.5 21.0002C15.7742 21.0002 13.5116 19.0174 13.0758 16.4154C12.8172 16.1044 12.3886 16.0002 12 16.0002C11.6114 16.0002 11.1828 16.1044 10.9242 16.4154C10.4884 19.0174 8.22578 21.0002 5.5 21.0002C2.46243 21.0002 0 18.5378 0 15.5002C0 15.2389 0.0182295 14.9818 0.0534864 14.7302C0.106769 14.2893 0.195948 13.7942 0.303069 13.2818C0.483034 12.4208 0.729752 11.438 0.99968 10.4437C1.53984 8.45388 2.18384 6.3784 2.60314 5.06451C2.99947 3.82262 4.15313 3.00024 5.44152 3.00024H7C7.55228 3.00024 8 3.44796 8 4.00024C8 4.55253 7.55228 5.00024 7 5.00024H5.44152ZM2.00992 15.5002C2.00992 17.4278 3.57248 18.9903 5.5 18.9903C7.42752 18.9903 8.99008 17.4278 8.99008 15.5002C8.99008 13.5727 7.42752 12.0102 5.5 12.0102C3.57248 12.0102 2.00992 13.5727 2.00992 15.5002ZM15.0099 15.5002C15.0099 17.4278 16.5725 18.9903 18.5 18.9903C20.4275 18.9903 21.9901 17.4278 21.9901 15.5002C21.9901 13.5727 20.4275 12.0102 18.5 12.0102C16.5725 12.0102 15.0099 13.5727 15.0099 15.5002Z" fill="#0F0F0F"/>
</svg>