<svg width="3144" height="853" viewBox="0 0 3144 853" fill="none" xmlns="http://www.w3.org/2000/svg">
<g clip-path="url(#clip0_11_2)">
<rect width="3144" height="853" fill="white"/>
<path d="M320 442.5C320 471.806 331.905 499.913 353.097 520.635C374.289 541.358 403.031 553 433 553C462.969 553 491.711 541.358 512.903 520.635C534.095 499.913 546 471.806 546 442.5C546 413.194 534.095 385.087 512.903 364.365C491.711 343.642 462.969 332 433 332C403.031 332 374.289 343.642 353.097 364.365C331.905 385.087 320 413.194 320 442.5Z" fill="#FF8282"/>
<path d="M737.981 427.334C736.011 354.49 569.524 169 399.324 169C229.124 169 59 359.836 59 427.334C59 494.832 212.756 685 399.324 685C585.893 685 739.952 500.179 737.981 427.334ZM677.585 468.026C665.082 489.857 647.046 512.951 625.373 534.782C594.986 565.375 559.673 591.141 523.223 609.334C481.772 630.051 440.093 640.521 399.324 640.521C362.571 640.521 324.758 631.61 286.944 614.012C253.525 598.493 220.031 575.919 190.098 548.816C164.03 525.203 140.766 498.099 124.549 472.556C108.105 446.641 104.467 431.195 104.467 427.334C104.619 423.547 108.938 408.028 127.125 381.667C144.706 356.198 169.486 328.946 196.994 304.887C227.988 277.784 261.937 255.21 294.976 239.543C331.578 222.241 366.739 213.479 399.4 213.479C432.44 213.479 467.753 222.167 504.203 239.245C537.242 254.691 570.812 277.116 601.427 303.922C628.632 327.832 653.109 355.084 670.235 380.628C687.588 406.468 692.438 423.176 692.59 428.448C692.665 433.2 689.634 446.789 677.585 468.026Z" fill="#62ABDC"/>
<path d="M515.012 476.103C504.62 469.194 490.435 471.869 483.381 482.12C464.645 509.309 433.469 525.503 400.018 525.503C344.569 525.503 299.512 481.377 299.512 427.074C299.512 372.771 344.569 328.646 400.018 328.646C418.678 328.646 436.883 333.697 452.66 343.206C463.355 349.669 477.388 346.4 483.988 335.926C490.587 325.451 487.249 311.709 476.554 305.246C453.57 291.354 427.097 284 400.018 284C319.537 284 254 348.109 254 427C254 505.817 319.461 570 400.018 570C448.564 570 493.849 546.451 521.08 507.006C528.134 496.829 525.404 483.011 515.012 476.103Z" fill="#33CC66"/>
<path d="M543.641 401.691C539.898 381.402 531.803 362.525 519.736 345.58C512.48 335.473 498.198 332.946 487.811 340.006C477.425 347.066 474.904 360.964 482.083 371.071C490.408 382.74 495.983 395.671 498.504 409.643C500.489 420.419 510.113 428 521.034 428C522.409 428 523.783 427.851 525.158 427.628C537.607 425.399 545.855 413.805 543.641 401.691Z" fill="#33CC99"/>
<path d="M1092.15 550.85L1053 590H941.85L903.15 550.85V318.2L941.85 279.05H1053L1092.15 318.2V350.6L1047.6 395.6V318.2H947.7V550.85H1047.6V518L1092.15 473.45V550.85ZM1309.35 550.85L1270.65 590H1187.4L1148.7 550.85V395.6L1187.4 356.45H1270.65L1309.35 395.6V550.85ZM1265.25 550.85V395.6H1193.25V550.85H1265.25ZM1465.83 590H1421.73L1383.03 550.85V273.2L1427.58 229.1V550.85H1465.83V590ZM1664.43 550.85L1625.73 590H1542.48L1503.78 550.85V395.6L1542.48 356.45H1625.73L1664.43 395.6V550.85ZM1620.33 550.85V395.6H1548.33V550.85H1620.33ZM1893.36 434.3L1848.81 478.85V395.6H1782.66V590H1738.11V356.45H1782.66V390.2L1815.06 356.45H1854.66L1893.36 395.6V434.3ZM2213.19 318.2H2060.19V395.6H2163.24L2201.49 434.3V550.85L2163.24 590H2054.34L2015.64 550.85V519.8L2060.19 477.05V550.85H2156.94V434.3H2054.34L2015.64 395.6V318.2L2054.34 279.05H2174.04L2213.19 318.2ZM2430.39 590H2308.44L2269.74 550.85V395.6L2308.44 356.45H2391.69L2430.39 395.6V473.45L2391.69 512.15H2319.69L2359.29 473.45H2386.29V395.6H2314.29V550.85H2430.39V590ZM2654.18 590H2610.08V395.6H2538.08V590H2493.53V356.45H2538.08V390.2L2570.93 356.45H2615.48L2654.18 395.6V590ZM2861.37 395.6H2750.22V434.3H2811.42L2850.57 473.45V550.85L2811.42 590H2705.67V550.85H2806.02V473.45H2744.82L2705.67 434.3V395.6L2744.82 356.45H2821.77L2861.37 395.6ZM3061.89 590H2939.94L2901.24 550.85V395.6L2939.94 356.45H3023.19L3061.89 395.6V473.45L3023.19 512.15H2951.19L2990.79 473.45H3017.79V395.6H2945.79V550.85H3061.89V590Z" fill="#3498DB"/>
</g>
<defs>
<clipPath id="clip0_11_2">
<rect width="3144" height="853" fill="white"/>
</clipPath>
</defs>
</svg>
